<?xml version="1.0" encoding="utf-8" ?><svg xmlns="http://www.w3.org/2000/svg" xmlns:xlink="http://www.w3.org/1999/xlink" width="740" height="804" viewBox="0 0 740 804"><clipPath id="cl_3"><rect width="740" height="804"/></clipPath><g clip-path="url(#cl_3)"><path fill="#020102" fill-opacity="0.0078431377" transform="matrix(1.02069 0 0 1.0203 -675.697 -180.594)" d="M0 0L2048 0L2048 1142L0 1142L0 0ZM737.093 212.488C738.452 212.925 748.144 216.14 748.731 216.076C759.469 246.008 786.044 268.367 812.029 285.18C788.662 277.402 765.355 269.389 742.001 261.589C733.561 258.769 727.209 252.973 718.821 251.037L714.974 236.629C713.731 241.715 712.511 247.105 711.104 252.122L697.98 254.15C702.018 255.409 706.94 256.53 709.994 259.295C712.962 265.154 709.341 263.556 714.482 270.558L715.798 270.398L717.486 267.281C721.044 271.32 729.425 282.943 731.991 285.247C749.618 301.077 773.542 311.698 794.393 322.011C781.067 319.121 765.238 317.265 751.479 315.249C737.694 313.23 719.288 308.77 706.206 307.547L703.321 296.614L699.424 309.318C694.523 310.72 690.87 311.617 685.866 312.585C689.747 313.61 695.745 314.702 698.582 317.139C699.844 321.731 700.106 323.491 703.005 327.211C704.987 325.113 704.398 325.438 705.118 322.136C707.456 322.65 710.756 327.009 712.871 328.763C731.46 344.173 761.238 356.319 784.143 363.608C783.935 363.708 726.349 365.511 720.563 365.762C719.398 363.892 719.697 362.943 719.836 360.733L718.436 360.156C715.318 370.783 718.994 368.131 706.88 371.966C708.152 374.02 713.207 375.636 715.9 376.802C716.556 379.473 717.253 384.667 719.047 385.872C719.595 383.782 720.037 382.123 720.397 379.995C723.947 380.88 725.084 382.887 727.963 385.025C744.518 397.319 765.11 399.299 782.816 408.579C775.6 408.739 760.483 413.47 752.896 415.565L752.44 414.555C751.845 413.264 751.676 413.04 750.747 411.906C745.049 418.873 751.867 416.554 740.349 422.168C742.947 426.946 746.249 420.646 749.405 433.093L750.922 433.174L752.643 430.774C763.566 433.486 773.952 443.269 785.549 445.063C790.913 445.892 797.162 447.667 802.418 449.121C799.25 451.762 794.237 456.435 790.59 457.749C789.066 456.39 789.521 456.669 788.874 454.341C783.715 456.788 788.329 461.269 777.211 464.717C776.691 464.878 776.169 465.034 775.646 465.186L775.33 466.358C779.693 468.059 782.829 468.017 784.613 471.741C786.065 474.772 785.698 477.873 787.804 478.881L789.6 474.622C791.606 474.801 811.698 487.597 815.908 489.799C813.438 497.163 812.889 503.604 810.916 510.691C819.969 518.284 826.426 519.648 837.536 523.196C836.803 551.419 837.504 549.346 866.338 554.126C866.922 559.598 867.003 567.071 869.89 571.305C872.587 572.822 873.005 573.042 876.038 573.596C881.121 574.344 893.638 576.865 897.933 574.908L900.405 575.584C902.626 579.884 902.645 586.733 903.771 591.719C912.946 592.936 927.172 592.955 935.967 590.359L943.347 603.453C956.989 601.517 962.162 599.933 974.863 594.505C968.218 606.697 930.853 671.725 923.271 679.32C917.74 684.859 910.47 689.564 904.243 694.334L875.292 716.862L783.119 787.092C762.688 802.39 685.235 855.734 687.33 880.527C691.909 888.612 703.637 886.115 711.887 885.107C706.829 892.365 703.268 897.736 698.934 905.357C696.511 909.618 690.341 921.898 687.94 924.705L687.089 920.099L685.91 920.367C684.001 925.394 683.541 929.248 682.256 934.271L671.366 935.428L671.412 936.375C687.68 944.575 682.604 939.401 685.802 957.396L690.102 942.352C706.003 939.089 731.058 927.965 742.373 916.638C740.453 923.278 736.336 932.942 739.424 938.717C756.98 955.5 813.547 906.136 824.488 893.286C869.867 839.987 911.721 783.264 957.037 729.933C973.01 726.572 1009.94 709.782 1025.71 701.587C1034.64 703.336 1047.94 705.203 1056.95 705.198C1058.63 706.463 1062.84 709.609 1064.72 710.099C1091.47 717.093 1118.53 721.278 1145.21 728.697C1135.07 734.105 1128.96 738.13 1120.78 746.374C1121 753.859 1120.77 757.517 1125.14 763.915L1126.5 763.691C1127.63 760.187 1126.28 754.99 1125.62 751.129C1131.86 745.86 1146.74 737.623 1149.76 732.855C1151.36 730.492 1151.54 729.73 1154.08 728.916C1157.13 729.478 1158.36 729.94 1161.29 728.712C1154.11 717.764 1092.95 710.379 1077.67 703.803C1079.04 692.463 1125.29 699.919 1134.62 701.113C1150.43 703.151 1166.29 704.843 1182.18 706.188C1174.89 710.013 1162.86 715.932 1164.59 725.691L1166.07 726.48C1173.45 720.909 1182.24 715.667 1188.5 710.804C1195.89 719.681 1202.56 726.715 1197.9 739.05L1197.66 739.677C1195.72 744.84 1192.62 747.205 1188.6 750.93C1216.39 738.641 1201.57 738.045 1207.9 723.489L1209.31 724.039C1209.57 724.762 1209.79 725.502 1209.96 726.253C1210.53 728.664 1210.26 733.908 1210.36 736.436C1210.96 750.783 1208.06 750.834 1200.95 762.267C1218.2 752.867 1224.34 735.977 1213.33 718.465C1196.04 690.971 1151.22 697.185 1121.15 691.064C1129.92 685.206 1146.08 679.56 1155.83 673.21C1168.14 665.193 1185.68 653.825 1196.33 643.918C1216.15 625.492 1244.75 589.877 1254.24 565.017C1259.24 555.306 1266.2 529.091 1267.63 518.408C1274.53 466.826 1286.08 449.305 1317.86 410.166C1323.3 405.802 1365.44 395.581 1376.3 391.936C1359.04 377.502 1341.3 374.826 1319.7 374.684C1294.88 354.598 1276.59 343.331 1243.02 346.935C1214.75 349.97 1195.01 363.508 1177.48 385.391C1167.85 397.412 1156.96 413.741 1144.54 422.228C1138.81 426.145 1129.51 430.09 1123.29 433.862C1108.06 422.61 1095.03 410.25 1082.74 395.816C1070.06 380.919 1059.1 365.192 1043.28 353.333C1021.98 337.367 996.079 328.732 973.687 314.765C956.129 303.813 827.403 202.238 822.356 194.048C821.968 193.419 821.558 192.806 821.172 192.174L819.87 192.727C819.471 194.852 819.273 196.356 818.496 198.369C816.214 198.341 814.633 198.351 812.36 198.527L812.031 199.954C815.134 201.86 818.029 202.8 818.472 206.577C821.324 230.918 834.87 242.495 849.693 261.448C839.926 257.914 832.378 252.676 823.256 248.258C799.839 236.916 779.314 221.98 757.395 208.58C756.206 205.639 755.233 203.17 753.752 200.334C750.452 204.7 755.737 209.978 742.601 211.804C740.768 212.054 738.932 212.282 737.093 212.488ZM1161.81 789.407C1168.12 785.442 1174.94 779.856 1179.91 774.314C1180.43 752.256 1184.57 751.214 1168.63 736.031L1165.1 736.681L1164.23 738.22C1165.82 740.609 1166.48 741.687 1168.52 743.685L1168.52 744.831C1174.65 755.526 1172.59 761.24 1172.41 773.949C1168.11 779.632 1165.44 783.227 1161.81 789.407Z"/><path fill="#494041" fill-opacity="0.95294118" transform="matrix(1.02069 0 0 1.0203 -675.697 -180.594)" d="M849.693 261.448C834.87 242.495 821.324 230.918 818.472 206.577C818.029 202.8 815.134 201.86 812.031 199.954L812.36 198.527C814.633 198.351 816.214 198.341 818.496 198.369C819.273 196.356 819.471 194.852 819.87 192.727L821.172 192.174C821.558 192.806 821.968 193.419 822.356 194.048C827.403 202.238 956.129 303.813 973.687 314.765C996.079 328.732 1021.98 337.367 1043.28 353.333C1059.1 365.192 1070.06 380.919 1082.74 395.816C1095.03 410.25 1108.06 422.61 1123.29 433.862C1129.51 430.09 1138.81 426.145 1144.54 422.228C1156.96 413.741 1167.85 397.412 1177.48 385.391C1195.01 363.508 1214.75 349.97 1243.02 346.935C1276.59 343.331 1294.88 354.598 1319.7 374.684C1341.3 374.826 1359.04 377.502 1376.3 391.936C1365.44 395.581 1323.3 405.802 1317.86 410.166C1315.54 406.042 1316.83 407.047 1313.19 405.514C1308.38 403.943 1306.79 403.61 1302.01 406.449C1285.8 416.099 1271.99 430.561 1257.42 442.594C1252.49 446.668 1250.14 453.474 1244.18 454.812C1242.83 455.116 1235.84 470.46 1235.32 472.48C1236.62 474.49 1237.76 474.601 1240.14 475.508L1240.08 476.744C1237.93 477.674 1235.8 478.658 1233.69 479.695C1232.95 482.025 1232.8 483.011 1231.4 484.97C1228.02 482.07 1230.37 479.004 1227.02 479.638C1212.68 482.343 1206.37 486.994 1194.9 493.982C1194.11 498.956 1215.38 540.03 1219.67 547.354C1220.4 541.783 1221.07 535.304 1222.03 529.845C1222.92 534.151 1224.11 547.527 1225 549.395C1227.95 549.001 1228.35 548.657 1231.06 547.296C1230.91 549.465 1228.99 551.797 1227.71 553.712C1235 554.581 1241.93 555.183 1249 557.165C1242.43 558.182 1233.39 559.827 1226.97 560.331C1229.38 561.842 1231.4 562.699 1232.64 565.152C1228.27 565.809 1226.39 562.016 1225.27 563.837C1223.37 566.94 1223.54 577.931 1223.44 581.64C1221.72 575.125 1220.09 568.587 1218.54 562.029C1214.83 567.81 1178.9 621.213 1178.96 622.326L1183.4 623.623L1183.48 624.968C1181.38 625.48 1178.8 625.867 1177.14 627.135L1175.36 633.417C1172.15 631.076 1175.47 629.634 1171.89 628.201C1159.73 632.493 1109.93 656.872 1106.31 667.751L1105.46 667.357C1104.72 665.165 1104.93 664.364 1103.42 663.448C1097.43 674.397 1090.02 683.663 1084.44 693.973C1091.72 691.446 1098.57 690.114 1105.84 687.946C1162.38 671.084 1218.57 622.683 1244.25 570.005C1246.64 565.001 1248.94 559.955 1251.14 554.868L1251.25 555.742C1251.68 559.463 1251.57 560.174 1250.61 563.805L1251.61 564.875L1252.64 564.862C1253.88 564.857 1253.41 564.766 1254.24 565.017C1244.75 589.877 1216.15 625.492 1196.33 643.918C1185.68 653.825 1168.14 665.193 1155.83 673.21C1146.08 679.56 1129.92 685.206 1121.15 691.064C1151.22 697.185 1196.04 690.971 1213.33 718.465C1224.34 735.977 1218.2 752.867 1200.95 762.267C1208.06 750.834 1210.96 750.783 1210.36 736.436C1210.26 733.908 1210.53 728.664 1209.96 726.253C1209.79 725.502 1209.57 724.762 1209.31 724.039L1207.9 723.489C1201.57 738.045 1216.39 738.641 1188.6 750.93C1192.62 747.205 1195.72 744.84 1197.66 739.677L1197.9 739.05C1202.56 726.715 1195.89 719.681 1188.5 710.804C1182.24 715.667 1173.45 720.909 1166.07 726.48L1164.59 725.691C1162.86 715.932 1174.89 710.013 1182.18 706.188C1166.29 704.843 1150.43 703.151 1134.62 701.113C1125.29 699.919 1079.04 692.463 1077.67 703.803C1092.95 710.379 1154.11 717.764 1161.29 728.712C1158.36 729.94 1157.13 729.478 1154.08 728.916C1151.54 729.73 1151.36 730.492 1149.76 732.855C1146.74 737.623 1131.86 745.86 1125.62 751.129C1126.28 754.99 1127.63 760.187 1126.5 763.691L1125.14 763.915C1120.77 757.517 1121 753.859 1120.78 746.374C1128.96 738.13 1135.07 734.105 1145.21 728.697C1118.53 721.278 1091.47 717.093 1064.72 710.099C1062.84 709.609 1058.63 706.463 1056.95 705.198C1047.94 705.203 1034.64 703.336 1025.71 701.587C1009.94 709.782 973.01 726.572 957.037 729.933C911.721 783.264 869.867 839.987 824.488 893.286C813.547 906.136 756.98 955.5 739.424 938.717C736.336 932.942 740.453 923.278 742.373 916.638C731.058 927.965 706.003 939.089 690.102 942.352L685.802 957.396C682.604 939.401 687.68 944.575 671.412 936.375L671.366 935.428L682.256 934.271C683.541 929.248 684.001 925.394 685.91 920.367L687.089 920.099L687.94 924.705C690.341 921.898 696.511 909.618 698.934 905.357C703.268 897.736 706.829 892.365 711.887 885.107C703.637 886.115 691.909 888.612 687.33 880.527C685.235 855.734 762.688 802.39 783.119 787.092L875.292 716.862L904.243 694.334C910.47 689.564 917.74 684.859 923.271 679.32C930.853 671.725 968.218 606.697 974.863 594.505C962.162 599.933 956.989 601.517 943.347 603.453L935.967 590.359C927.172 592.955 912.946 592.936 903.771 591.719C902.645 586.733 902.626 579.884 900.405 575.584L897.933 574.908C899.529 572.159 898.494 572.999 902.137 572.025L901.254 568.174C904.224 565.307 912.308 553.712 915.041 550.015C924.498 537.227 933.645 524.166 943.484 511.638C936.362 508.663 928.914 505.104 921.665 502.007C905.759 518.744 889.248 534.833 873.221 551.741C873.768 557.46 874.13 559.911 873.349 565.534L872.148 567.511C873.32 569.153 875.906 571.992 876.038 573.596C873.005 573.042 872.587 572.822 869.89 571.305C867.003 567.071 866.922 559.598 866.338 554.126C837.504 549.346 836.803 551.419 837.536 523.196C826.426 519.648 819.969 518.284 810.916 510.691C812.889 503.604 813.438 497.163 815.908 489.799C811.698 487.597 791.606 474.801 789.6 474.622L787.804 478.881C785.698 477.873 786.065 474.772 784.613 471.741C782.829 468.017 779.693 468.059 775.33 466.358L775.646 465.186C776.169 465.034 776.691 464.878 777.211 464.717C788.329 461.269 783.715 456.788 788.874 454.341C789.521 456.669 789.066 456.39 790.59 457.749C794.237 456.435 799.25 451.762 802.418 449.121C797.162 447.667 790.913 445.892 785.549 445.063C773.952 443.269 763.566 433.486 752.643 430.774L750.922 433.174L749.405 433.093C746.249 420.646 742.947 426.946 740.349 422.168C751.867 416.554 745.049 418.873 750.747 411.906C751.676 413.04 751.845 413.264 752.44 414.555L752.896 415.565C760.483 413.47 775.6 408.739 782.816 408.579C765.11 399.299 744.518 397.319 727.963 385.025C725.084 382.887 723.947 380.88 720.397 379.995C720.037 382.123 719.595 383.782 719.047 385.872C717.253 384.667 716.556 379.473 715.9 376.802C713.207 375.636 708.152 374.02 706.88 371.966C718.994 368.131 715.318 370.783 718.436 360.156L719.836 360.733C719.697 362.943 719.398 363.892 720.563 365.762C726.349 365.511 783.935 363.708 784.143 363.608C761.238 356.319 731.46 344.173 712.871 328.763C710.756 327.009 707.456 322.65 705.118 322.136C704.398 325.438 704.987 325.113 703.005 327.211C700.106 323.491 699.844 321.731 698.582 317.139C695.745 314.702 689.747 313.61 685.866 312.585C690.87 311.617 694.523 310.72 699.424 309.318L703.321 296.614L706.206 307.547C719.288 308.77 737.694 313.23 751.479 315.249C765.238 317.265 781.067 319.121 794.393 322.011C773.542 311.698 749.618 301.077 731.991 285.247C729.425 282.943 721.044 271.32 717.486 267.281L715.798 270.398L714.482 270.558C709.341 263.556 712.962 265.154 709.994 259.295C706.94 256.53 702.018 255.409 697.98 254.15L711.104 252.122C712.511 247.105 713.731 241.715 714.974 236.629L718.821 251.037C727.209 252.973 733.561 258.769 742.001 261.589C765.355 269.389 788.662 277.402 812.029 285.18C786.044 268.367 759.469 246.008 748.731 216.076C748.144 216.14 738.452 212.925 737.093 212.488C738.932 212.282 740.768 212.054 742.601 211.804C755.737 209.978 750.452 204.7 753.752 200.334C755.233 203.17 756.206 205.639 757.395 208.58C779.314 221.98 799.839 236.916 823.256 248.258C832.378 252.676 839.926 257.914 849.693 261.448ZM1057.73 545.713C1072.3 540.211 1099.76 529.53 1112.49 521.967C1105.09 520.337 1069.25 511.679 1064.17 514.296C1063.72 516.689 1063.29 518.663 1062.68 521.02L1061.28 521.062C1060.78 519.207 1060.24 517.363 1059.66 515.532C1057.09 516.448 1041.22 529.071 1039.1 531.662L1038.49 532.172C1037.34 533.111 1035.39 534.75 1034.05 535.17C1029.87 536.479 1027.69 541.683 1024.91 543.609C1019.9 545.656 1012.01 558.77 1008.21 563.186C988.661 585.907 973.794 609.697 958.342 635.331C941.716 662.912 925.891 689.704 913.379 719.572C910.372 726.777 907.586 734.073 905.025 741.448C920.193 734.278 952.215 726.008 970.212 719.105C987.819 712.351 1009.83 700.42 1025.84 694.637C1035.37 696.329 1042.99 697.524 1052.61 698.483C1049.79 690.728 1049.82 688.496 1049.52 680.332C1051.48 676.695 1052.91 673.001 1056.43 671.035L1058.45 671.126C1064.35 681.866 1046.97 682.271 1066.85 703.359C1076.53 694.167 1080.32 686.515 1088.29 675.896C1091.48 671.638 1097.22 665.477 1100.93 661.37C1099.26 659.697 1099.71 660.634 1099.13 658.666L1099.65 658.503C1101.63 657.879 1101.9 657.806 1103.63 656.741C1104.29 654.419 1104.63 653.204 1105.59 650.998L1106.59 651.592L1107.45 656.556C1113.38 655.891 1159.81 631.323 1166.44 626.594C1166.89 624.318 1167.06 625.342 1166.2 623.399C1168.36 622.866 1169.14 622.798 1171.37 622.625C1171.34 620.943 1168.6 618.156 1167.26 617.213C1162.98 614.215 1151.04 594.72 1147.5 593.542C1146.99 596.407 1146.98 600.226 1145.2 601.585C1141.94 597.92 1145.03 595.451 1141.79 593.899C1124.57 600.457 1084.37 624.309 1067.46 634.846C1071.6 634.828 1076.86 634.445 1080.57 635.936L1080.74 637.298C1076.11 639.178 1069.92 638.323 1067.38 639.89C1068.13 642.327 1068.58 643.325 1069.71 645.615L1065.88 643.131L1064.54 643.614C1062.56 650.416 1062.63 655.651 1061.12 662.466C1060.47 657.245 1059.5 647.295 1058.47 642.514C1056.55 643.665 1054.86 644.797 1053 646.051L1052.17 645.469C1053.28 642.922 1053.62 642.72 1055.56 640.652L1054.97 639.19L1053.59 636.126C1049.97 635.076 1046.88 634.063 1043.33 632.806C1046.96 632.793 1050.03 633.572 1054.13 633.578L1054.98 632.498L1052.45 627.482L1053.84 627.135C1055.45 628.772 1056.05 629.685 1058.16 630.427C1059.99 627.276 1061.01 614.841 1061.52 610.489C1062.27 614.821 1062.85 624.201 1063.33 629.11L1064.54 629.69C1066.04 628.758 1067.48 627.83 1069.27 627.623C1077.93 626.619 1126.33 598.212 1137.91 591.293L1135.4 588.805L1135.51 587.49C1137.9 586.557 1140.29 585.642 1142.69 584.744C1143.16 581.141 1143.38 579.667 1144.42 576.124L1145.72 576.191L1147.37 580.854L1148.19 581.037L1169.22 530.891C1172.86 522.422 1182.37 502.087 1183.84 494.281C1181.11 490.876 1179.52 494.109 1176 490.532C1177.59 488.609 1179.9 488.555 1182.77 487.757L1182.83 486.539C1178.11 480.397 1162.87 465.908 1156.53 461.551C1153.3 480.024 1151.73 492.23 1137.76 506.473C1134.75 509.539 1127.07 516.53 1124.87 519.558C1127.09 520.397 1127.26 520.595 1129.16 522.075C1125.25 527.915 1122.25 518.233 1119.65 532.341L1118.44 532.693L1116.02 524.35C1107.13 528.283 1068.81 543.331 1064.48 547.623C1066.06 548.34 1067.22 548.598 1067.98 550.101C1061.33 556.184 1060.55 545.561 1056.27 561.86C1052.98 561.167 1056.04 559.64 1053.29 556.783C1050.36 560.934 1041.1 584.234 1041.35 589.173C1044.15 590.045 1044.8 590.257 1047.3 591.776L1046.67 593.313C1044.8 593.713 1043.56 594.076 1041.73 594.647C1040.82 596.787 1039.93 598.932 1039.04 601.083C1034.77 593.926 1038.24 596.26 1029.57 592.837L1029.41 591.615C1040.91 588.824 1046.35 566.655 1050.32 556.216C1051.7 552.592 1046.13 552.216 1043.98 549.926L1045.08 548.205C1053.58 546.582 1052.11 545.787 1055.18 538.007C1056.77 539.272 1057.15 543.211 1057.73 545.713ZM907.165 571.606L909.763 585.385L910.597 586.691C941.601 583.4 934.539 588.355 949.456 560.166C958.45 543.168 968.303 521.397 978.374 505.4C976.19 500.346 971.674 486.478 970.21 483.743C967.082 488.557 955.089 505.65 955.278 509.892C957.824 510.942 958.06 510.51 959.082 512.367C957.468 514.242 956.42 514.43 954.062 515.42C952.463 517.967 951.191 520.231 949.749 522.857L948.539 522.433L947.465 518.634C943.549 520.573 912.814 564.558 907.165 571.606ZM917.365 691.827C875.743 724.198 833.828 756.191 791.625 787.802C768.67 805.218 701.834 850.651 694.551 877.494C695.374 878.975 694.819 878.686 695.966 879.053C702.822 878.786 709.674 878.451 716.523 878.047C725.918 869.86 735.014 860.67 744.406 852.219C767.927 831.06 791.731 810.217 815.81 789.695L880.007 734.228C896.86 719.614 908.771 713.907 918.451 693.293L917.965 692.018L917.365 691.827ZM945.831 509.102C951.619 500.003 960.412 485.984 966.73 477.567C966.141 472.569 966.24 461.439 963.496 458.793C954.484 467.751 932.839 490.023 925.052 499.211C926.81 500.179 932.182 503.312 933.728 503.96L945.831 509.102ZM818.048 327.098C819.571 324.068 821.495 320.478 822.839 317.434L832.607 298.467C794.443 286.347 759.105 272.72 721.458 260.742C740.484 298.597 787.582 307.778 818.048 327.098ZM1014.36 390.254L1021.96 386.484C1016.53 381.131 982.796 354.715 976.823 354.034C976.128 355.768 975.898 356.467 975.419 358.274L974.467 358.813C970.176 345.349 968.691 353.996 964.811 348.959C966.387 347.243 966.499 347.703 969.261 347.027C967.39 344 947.853 326.054 944.371 323.488L944.268 324.522C943.593 330.681 940.258 332.675 939.496 335.552C935.788 349.56 960.234 393.569 975.134 393.892C975.927 392.313 976.748 390.749 977.597 389.199L978.69 389.297C980.253 392.641 980.233 394.02 982.917 395.931C988.554 396.479 1009.66 392.154 1014.36 390.254ZM1253.66 352.457C1192.83 354.897 1188.97 392.075 1149.31 427.103C1146.22 429.836 1133.57 435.703 1129.06 438.24C1134.2 442.241 1146.2 450.753 1152.12 452.514C1153.95 451.241 1153.55 451.124 1154.65 448.747L1155.97 449.329C1157.27 455.735 1156.75 452.659 1160.98 458.102C1164.09 462.104 1182.05 482.15 1185.88 483.916C1187.73 481.919 1187.53 480.345 1187.79 477.572L1188.98 477.013C1190.66 479.731 1191.08 482.912 1191.78 486.094C1203.3 483.523 1224.39 479.696 1231.02 468.946C1236.35 466.787 1241.17 455.287 1244.77 449.643C1235.97 447.829 1227.34 446.011 1218.6 443.868C1213.6 442.641 1204 432.253 1201.9 432.968L1200.5 435.174L1198.81 434.95C1198.11 433.067 1197.83 431.96 1196.55 430.369L1192.63 429.719L1192.38 428.252C1195.6 425.39 1197.03 425.169 1197.19 420.425C1198.12 393.468 1227.65 386.493 1250.09 387.221C1259.05 372.813 1268.3 374.799 1276.62 388.226C1284.8 388.943 1292.96 389.944 1301.07 391.227C1306.2 386.876 1309.76 383.785 1314.47 378.922C1300.29 364.186 1274.45 350.631 1253.66 352.457ZM821.563 326.626C857.529 335.591 896.597 345.825 932.766 353.081L935.131 352.777C935.603 348.846 933.66 343.733 934.762 342.804L937.095 344.624C936.923 341.901 937.265 342.94 935.238 340.648C901.163 328.946 867.793 315.281 835.297 299.722C830.456 307.759 825.592 318.002 821.563 326.626ZM1321.4 381.106C1318.22 384.486 1315.38 387.378 1312.68 391.187C1322.96 388.617 1332.31 387.355 1342.82 386.025L1349.25 385.941L1349.81 385.216C1343.06 382.209 1328.86 381.052 1321.4 381.106ZM915.384 744.261C910.802 745.292 905.878 746.301 901.373 747.535C852.371 802.077 800.12 856.47 752.173 912.067C748.892 915.872 745.898 929.779 745.214 935.238C773.15 934.034 802.284 909.086 820.051 888.822C863.203 839.607 901.825 785.322 943.725 735.154C939.713 736.475 927.876 740.012 925.378 742.589C887.397 781.77 855.004 826.84 818.439 867.45C816.413 869.715 814.541 872.071 812.626 874.43L812.955 875.867L818.767 876.941L818.973 878.308C817.134 880.857 814.488 881.089 811.277 881.968C807.799 884.839 808.953 886.474 806.861 890.916L805.908 890.451C804.28 880.174 803.698 883.277 795.086 879.063C796.714 875.128 803.502 878.146 804.232 871.883C804.332 871.022 805.83 866.673 806.193 865.522L807.673 865.605C808.215 868.707 808.354 869.568 809.588 872.448C812.019 872.049 813.111 869.732 815.102 867.347C836.804 837.363 864.362 808.35 887.526 779.197C895.002 769.79 910.124 754.274 915.384 744.261ZM844.25 521.874C843.467 529.492 843.069 534.199 843.194 541.83C848.648 543.094 853.879 544.288 859.273 545.836C862.318 546.358 865.413 546.973 868.486 547.193C873.435 542.094 912.27 503.715 912.959 499.735C911.436 497.876 911.395 497.719 909.227 496.847C908.207 493.873 903.862 480.516 902.551 478.779C883.316 494.22 863.157 507.188 844.25 521.874ZM983.194 509.538C970.891 533.594 955.391 565.035 941.985 587.645C944.036 590.797 946.324 595.493 949.505 596.396L952.266 595.366C959.052 593.353 965.989 591.205 972.145 587.621C978.401 570.509 990.833 540.067 995.332 524.202C992.182 520.385 986.37 512.879 983.194 509.538ZM1027.7 526L1028.76 528.56C1035.93 528.383 1052.62 508.734 1058.07 507.104C1060.79 503.551 1059.79 499.46 1060.4 495.471C1064.03 471.66 1042.77 477.923 1028.02 480.111C1025.65 480.463 1022.78 484.1 1021.25 485.96L1019.32 483.615C1014.77 483.292 991.868 497.139 985.886 500.172C991.048 506.747 998.921 517.174 1004.37 523.185C1009.36 525.051 1015.45 527.148 1020.21 529.328C1021.4 529.47 1020.92 529.539 1022.09 529.167C1023.56 528.694 1025.34 523.624 1026.16 522.027L1027.22 522.713L1027.7 526ZM902.791 470.967C901.302 468.786 894.721 460.326 894.544 458.914C896.75 456.622 897.707 455.693 897.166 452.151C875.882 463.604 843.746 482.056 822.772 491.837C820.863 497.488 818.93 502.996 817.404 508.768C822.093 510.124 825.696 511.2 830.231 512.976L841.557 516.039C862.201 501.334 882.615 486.308 902.791 470.967ZM905.515 476.267C906.507 480.438 908.759 488.9 909.38 492.829C911.561 493.707 915.999 496.068 917.505 495.124C932.657 485.632 950.786 459.729 963.671 449.028C964.312 444.717 966.112 434.672 965.776 430.781C947.496 446.66 925.228 462.027 905.515 476.267ZM1071.21 509.451C1077.53 512.353 1108.94 517.839 1116.55 518.905L1117.97 511.891L1118.87 511.337C1120.18 513.234 1120.16 514.398 1120.56 516.731L1121.84 517.108C1140.19 503.265 1148.13 493.822 1151.92 470.109C1152.38 467.256 1152.69 464.545 1152.09 461.712L1151.27 461.228C1140.12 464.779 1129.43 468.344 1119.11 473.986C1111.21 478.306 1109.53 476.777 1107.44 486.022L1107.46 486.057L1105.65 482.173C1104.46 479.64 1104.43 479.424 1102.06 478.119C1089.92 476.497 1077.61 476.706 1065.53 478.736C1063.59 488.36 1060.51 497.563 1064.82 506.31C1067.07 508.486 1068.23 508.568 1071.21 509.451ZM821.886 484.838C858.524 466.389 893.81 444.751 930.438 426.054C939.209 421.578 947.564 415.382 957.392 410.455C954.929 410.172 954.697 410.08 952.317 410.614C930.009 416.412 804.33 449.632 795.717 462.072C795.484 462.408 795.309 462.935 795.168 463.29C797.238 464.12 797.661 464.258 799.835 464.732C798.737 469.039 794.809 467.518 796.163 471.073L803.473 475.092C809.315 478.265 816.326 481.646 821.886 484.838ZM943.226 372.545L938.855 360.529C927.214 360.048 914.533 355.264 902.984 352.883C874.705 347.051 847.077 339.704 819.166 332.355C817.964 334.071 815.492 337.517 814.651 339.312C813.268 342.266 815.681 342.988 816.55 345.541C810.49 348.779 812.799 346.832 809.248 352.697C807.213 347.672 807.268 348.385 802.679 346.296C801 340.654 812.623 340.352 814.782 334.964C813.263 332.513 808.1 330.23 805.32 329.961C775.39 327.064 737.651 316.008 708.189 315.406C731.171 339.21 751.866 344.857 781.992 355.689C809.774 365.678 823.749 363.918 852.106 366.665L851.835 368.181C854.247 370.605 859.214 371.88 862.646 373.057C831.002 370.518 799.257 369.459 767.515 369.882C758.296 369.993 747.224 369.906 738.214 370.887C735.361 371.198 730.393 374.838 724.444 376.139C746.479 390.015 773.386 400.307 799.422 404.622C802.945 405.206 833.718 400.717 839.247 400.013C863.934 396.919 888.654 394.097 913.402 391.546C925.49 390.291 942.955 386.927 954.391 389.094C954.233 386.723 948.983 380.535 947.1 378.157C941.314 378.836 874.842 374.155 870.781 372.75C879.042 372.229 883.044 373.566 892.15 370.701C895.406 369.676 901.149 380.28 909.296 370.188C916.21 369.888 935.554 371.911 943.226 372.545ZM969.947 342.353L972.02 343.508C973.315 339.015 970.82 326.144 969.967 320.902L957.361 321.337L950.299 322.216L949.876 322.983C956.271 329.996 962.964 335.967 969.947 342.353ZM981.51 402.155C979.719 406.776 976.603 412.568 975.389 416.369C966.972 442.723 970.079 468.242 982.006 492.922C983.128 495.244 982.792 495.673 985.013 497.084C986.351 496.644 987.368 496.467 988.353 495.478C994.501 492.309 1012.13 484.276 1016.44 480.984C1015.02 479.847 1014.57 479.539 1012.99 478.615C1014.66 476.644 1019.16 475.204 1019.48 473.737C1021.87 463.058 1022.86 451.301 1022.71 440.346C1022.64 435.301 1017.8 433.17 1013.88 431.013C1016.09 428.934 1019.4 429.174 1019.82 428.708C1024.96 423.007 1029.2 398.004 1024.52 392.655L1021.64 392.328C1010.04 394.634 991.482 397.097 981.51 402.155ZM1013.93 535.071C1008.12 532.633 1006.36 531.237 1001.37 527.567C993.548 547.681 986.067 567.927 978.936 588.297C992.909 572.161 1007.71 553.718 1020.89 536.892C1018.78 536.227 1016.12 535.63 1013.93 535.071ZM902.084 465.426L905.136 468.636C911.087 465.746 964.02 426.983 968.275 418.396C968.937 417.061 969.227 414.114 968.876 412.199L967.565 411.952C958.254 417.391 901.922 448.427 899.436 451.437C900.243 454.766 902.927 456.594 905.742 458.512C904.634 460.662 904.498 460.748 902.716 462.428L902.084 465.426ZM1302.46 400.869C1291.58 394.497 1288.04 395.476 1275.94 394.104C1260.13 410.505 1258.1 392.257 1239.74 393.305C1217.63 395.394 1186.99 412.079 1211.13 435.653C1215.56 439.979 1239.1 447.208 1244.3 444.042L1246.34 439.653L1247.91 440.212L1249.24 443.564C1252.56 443.23 1255.81 439.577 1258.64 437.167C1273.32 425.17 1287.77 412.737 1302.46 400.869ZM1026.29 436.668C1025.57 445.423 1021.12 468.465 1024.33 473.807C1029.99 478.631 1043.55 475.511 1050.7 474.617C1053.29 473.42 1055.16 473.178 1056.23 471.102C1049.15 461.898 1034.42 444.968 1026.29 436.668ZM813.46 444.515L924.6 411.001C934.094 408.171 959.936 402.089 966.793 398.07L966.444 396.599C963.36 394.859 962.445 394.143 958.794 393.952L957.46 394.456C919.696 396.323 879.466 401.162 842.059 406.088C824.638 408.382 768.126 410.744 758.597 425.618C763.508 428.749 766.3 430.502 771.657 433.006C788.656 439.984 797.367 440.074 813.46 444.515ZM897.721 732.744C902.451 727.55 904.36 725.541 907.999 719.386C879.341 740.931 842.93 774.671 814.945 798.779L758.75 847.493C730.474 872.376 704.596 895.516 692.904 933.138C712.346 930.586 729.085 920.324 744.988 909.03C748.765 906.348 764.226 888.616 768.519 883.868L810.503 837.822C823.744 823.262 896.158 747.868 899.368 736.315C899.527 735.588 899.627 733.947 899.704 733.127L897.721 732.744ZM932.051 334.037C934.312 331.983 933.662 333.035 934.451 330.013C932.235 325.571 856.091 290.274 844.072 284.546L837.851 294.562C869.424 307.324 900.467 321.088 932.051 334.037ZM834.953 294.473C837.188 289.774 838.047 289.806 837.765 285.256C836.593 284.008 835.518 282.857 834.273 281.67C836.442 280.348 836.693 280.366 839.225 279.841C839.909 277.991 840.075 277.482 841.159 275.737C842.736 276.931 842.903 277.853 843.649 279.678C859.022 291.197 901.938 309.57 921.067 319.073C926.839 322.041 928.961 323.077 935.244 325.022L935.982 324.517C930.453 316.11 877.891 283.468 865.961 276.894C850.139 268.173 833.468 261.129 817.682 252.196C797.773 240.93 777.897 227.425 757.314 217.545C769.719 253.82 804.855 272.694 834.953 294.473ZM824.89 206.395C832.984 249.22 876.137 276.898 910.477 297.151C919.979 302.756 929.825 310.112 939.428 315.207L941.293 309.046L942.248 308.629C945.788 314.843 944.49 315.118 951.831 315.021L957.766 313.841L957.885 312.531C945.435 300.195 917.827 280.94 902.872 268.949C889.761 258.427 876.76 247.767 863.872 236.971C856.099 230.406 832.902 210.337 824.89 206.395ZM1066.43 467.504L1066.25 470.801C1073.01 475.501 1096.24 476.393 1104.91 472.932C1106.24 472.401 1105.1 468.122 1107.91 467.375L1108.84 472.004C1113.77 474.561 1141.46 461.401 1148 458.628C1123.8 443.315 1103.55 428.795 1084.2 407.395C1073 395.014 1057.18 373.261 1045.1 363.303C1026.66 348.107 996.454 333.784 974.636 322.287C975.407 327.95 975.688 342.777 978.65 346.463C979.98 348.119 981.968 346.116 984.509 348.939C983.36 350.154 982.543 350.082 980.875 350.343C986.117 356.316 1019.69 380.695 1027.28 385.826C1027.61 383.968 1027.99 382.639 1027.73 380.761L1029.68 379.979C1029.55 378.921 1029.44 378.052 1029.24 377C1030.58 377.749 1030.95 382.635 1034.09 385.491C1037.53 386.802 1041.67 387.107 1042.98 389.07C1035.54 392.945 1034.03 389.929 1030.27 401.494C1028.23 407.734 1025.93 421.442 1027.75 427.505C1031.42 430.673 1032.94 427.76 1035.15 430.968C1032.99 432.91 1032.53 432.539 1029.49 433.257C1029.57 435.578 1056.31 466.667 1059.1 469.17C1065.22 466.777 1071.91 446.036 1072.87 439.493C1071.31 437.207 1071.6 437.848 1068.79 436.432L1069.31 435.016C1074.6 433.974 1073.76 431.331 1076.43 431.756C1077.61 431.942 1081.32 435.838 1081.59 437.268C1072.2 443.044 1070.1 457.616 1066.43 467.504ZM1178.32 617.44C1190.28 600.312 1206.66 577.539 1216.18 559.288C1209.75 558.547 1202.49 557.894 1196.21 556.604C1202.66 555.676 1209.09 554.643 1215.5 553.504C1214.78 551.524 1214.11 549.531 1213.47 547.525L1215 547.739C1212.82 542.322 1207.61 532.431 1204.77 527.03C1201.71 521.207 1194.6 503.153 1191.67 498.931L1189.78 502.707L1188.32 503.172L1186.44 500.978C1184.38 502.844 1150.07 583.743 1150.44 585.392C1152.98 585.981 1154.51 586.157 1156.75 587.56L1156.71 588.834L1151.33 590.464C1151.34 594.263 1169.43 616.93 1172.03 618.037L1172.27 617.374L1169.9 616.682L1172.06 618.454C1174.01 615.988 1173.07 616.536 1175.78 615.452L1177.12 617.687L1178.32 617.44Z"/><path fill="#020102" fill-opacity="0.011764706" transform="matrix(1.02069 0 0 1.0203 -675.697 -180.594)" d="M1116.02 524.35L1118.44 532.693L1119.65 532.341C1122.25 518.233 1125.25 527.915 1129.16 522.075C1127.26 520.595 1127.09 520.397 1124.87 519.558C1127.07 516.53 1134.75 509.539 1137.76 506.473C1151.73 492.23 1153.3 480.024 1156.53 461.551C1162.87 465.908 1178.11 480.397 1182.83 486.539L1182.77 487.757C1179.9 488.555 1177.59 488.609 1176 490.532C1179.52 494.109 1181.11 490.876 1183.84 494.281C1182.37 502.087 1172.86 522.422 1169.22 530.891L1148.19 581.037L1147.37 580.854L1145.72 576.191L1144.42 576.124C1143.38 579.667 1143.16 581.141 1142.69 584.744C1140.29 585.642 1137.9 586.557 1135.51 587.49L1135.4 588.805L1137.91 591.293C1126.33 598.212 1077.93 626.619 1069.27 627.623C1067.48 627.83 1066.04 628.758 1064.54 629.69L1063.33 629.11C1062.85 624.201 1062.27 614.821 1061.52 610.489C1061.01 614.841 1059.99 627.276 1058.16 630.427C1056.05 629.685 1055.45 628.772 1053.84 627.135L1052.45 627.482L1054.98 632.498L1054.13 633.578C1050.03 633.572 1046.96 632.793 1043.33 632.806C1031.59 631.191 1020.12 629.737 1008.47 627.524C1007.29 623.041 1006.03 618.459 1004.98 613.957C1004.35 617.766 1003.89 623.126 1001.83 626.118C1000.55 626.531 999.278 626.966 998.014 627.424C995.008 628.507 994.561 629.003 992.483 631.461C996.149 634.147 997.582 631.722 999.294 634.548C983.139 654.579 964.075 673.298 947.388 693.001C941.813 699.584 936.159 706.913 929.681 712.531L928.477 712.371L927.474 710.155L925.848 710.708C924.473 716.061 924.848 715.62 919.234 718.003L918.959 719.308C926.603 723.586 922.1 725.407 927.063 727.558C927.656 726.633 928.243 725.746 928.754 724.773C934.161 714.462 988.685 692.203 1002.13 685.823C1002.9 687.664 1003.41 689.098 1004.05 690.989L1005.53 690.816C1008.18 678.942 1011.75 686.128 1013.84 681.008C1009.5 678.944 1008.55 680.447 1004.84 683.229L1002.69 683.061L1001.88 681.934C1003.81 679.997 1003.88 679.877 1006.34 678.79C1007.18 676.885 1005.37 669.364 1005.83 665.8C1007.02 656.545 1001.77 637.443 1013.71 634.198C1027.55 630.438 1042.6 640.225 1054.97 639.19L1055.56 640.652C1053.62 642.72 1053.28 642.922 1052.17 645.469L1053 646.051C1054.86 644.797 1056.55 643.665 1058.47 642.514C1059.5 647.295 1060.47 657.245 1061.12 662.466C1062.63 655.651 1062.56 650.416 1064.54 643.614L1065.88 643.131L1069.71 645.615C1068.58 643.325 1068.13 642.327 1067.38 639.89C1069.92 638.323 1076.11 639.178 1080.74 637.298L1080.57 635.936C1076.86 634.445 1071.6 634.828 1067.46 634.846C1084.37 624.309 1124.57 600.457 1141.79 593.899C1145.03 595.451 1141.94 597.92 1145.2 601.585C1146.98 600.226 1146.99 596.407 1147.5 593.542C1151.04 594.72 1162.98 614.215 1167.26 617.213C1168.6 618.156 1171.34 620.943 1171.37 622.625C1169.14 622.798 1168.36 622.866 1166.2 623.399C1167.06 625.342 1166.89 624.318 1166.44 626.594C1159.81 631.323 1113.38 655.891 1107.45 656.556L1106.59 651.592L1105.59 650.998C1104.63 653.204 1104.29 654.419 1103.63 656.741C1101.9 657.806 1101.63 657.879 1099.65 658.503L1099.13 658.666C1099.71 660.634 1099.26 659.697 1100.93 661.37C1097.22 665.477 1091.48 671.638 1088.29 675.896C1080.32 686.515 1076.53 694.167 1066.85 703.359C1046.97 682.271 1064.35 681.866 1058.45 671.126L1056.43 671.035C1052.91 673.001 1051.48 676.695 1049.52 680.332C1049.82 688.496 1049.79 690.728 1052.61 698.483C1042.99 697.524 1035.37 696.329 1025.84 694.637C1009.83 700.42 987.819 712.351 970.212 719.105C952.215 726.008 920.193 734.278 905.025 741.448C907.586 734.073 910.372 726.777 913.379 719.572C925.891 689.704 941.716 662.912 958.342 635.331C973.794 609.697 988.661 585.907 1008.21 563.186C1012.01 558.77 1019.9 545.656 1024.91 543.609C1027.69 541.683 1029.87 536.479 1034.05 535.17C1035.39 534.75 1037.34 533.111 1038.49 532.172L1039.1 531.662C1041.22 529.071 1057.09 516.448 1059.66 515.532C1060.24 517.363 1060.78 519.207 1061.28 521.062L1062.68 521.02C1063.29 518.663 1063.72 516.689 1064.17 514.296C1069.25 511.679 1105.09 520.337 1112.49 521.967C1099.76 529.53 1072.3 540.211 1057.73 545.713C1057.15 543.211 1056.77 539.272 1055.18 538.007C1052.11 545.787 1053.58 546.582 1045.08 548.205L1043.98 549.926C1046.13 552.216 1051.7 552.592 1050.32 556.216C1046.35 566.655 1040.91 588.824 1029.41 591.615L1029.57 592.837C1038.24 596.26 1034.77 593.926 1039.04 601.083C1039.93 598.932 1040.82 596.787 1041.73 594.647C1043.56 594.076 1044.8 593.713 1046.67 593.313L1047.3 591.776C1044.8 590.257 1044.15 590.045 1041.35 589.173C1041.1 584.234 1050.36 560.934 1053.29 556.783C1056.04 559.64 1052.98 561.167 1056.27 561.86C1060.55 545.561 1061.33 556.184 1067.98 550.101C1067.22 548.598 1066.06 548.34 1064.48 547.623C1068.81 543.331 1107.13 528.283 1116.02 524.35Z"/><path fill="#020102" fill-opacity="0.0078431377" transform="matrix(1.02069 0 0 1.0203 -675.697 -180.594)" d="M974.636 322.287C996.454 333.784 1026.66 348.107 1045.1 363.303C1057.18 373.261 1073 395.014 1084.2 407.395C1103.55 428.795 1123.8 443.315 1148 458.628C1141.46 461.401 1113.77 474.561 1108.84 472.004L1107.91 467.375C1105.1 468.122 1106.24 472.401 1104.91 472.932C1096.24 476.393 1073.01 475.501 1066.25 470.801L1066.43 467.504C1070.1 457.616 1072.2 443.044 1081.59 437.268C1081.32 435.838 1077.61 431.942 1076.43 431.756C1073.76 431.331 1074.6 433.974 1069.31 435.016L1068.79 436.432C1071.6 437.848 1071.31 437.207 1072.87 439.493C1071.91 446.036 1065.22 466.777 1059.1 469.17C1056.31 466.667 1029.57 435.578 1029.49 433.257C1032.53 432.539 1032.99 432.91 1035.15 430.968C1032.94 427.76 1031.42 430.673 1027.75 427.505C1025.93 421.442 1028.23 407.734 1030.27 401.494C1034.03 389.929 1035.54 392.945 1042.98 389.07C1041.67 387.107 1037.53 386.802 1034.09 385.491C1030.95 382.635 1030.58 377.749 1029.24 377C1029.44 378.052 1029.55 378.921 1029.68 379.979L1027.73 380.761C1027.99 382.639 1027.61 383.968 1027.28 385.826C1019.69 380.695 986.117 356.316 980.875 350.343C982.543 350.082 983.36 350.154 984.509 348.939C981.968 346.116 979.98 348.119 978.65 346.463C975.688 342.777 975.407 327.95 974.636 322.287Z"/><path fill="#020102" fill-opacity="0.0078431377" transform="matrix(1.02069 0 0 1.0203 -675.697 -180.594)" d="M818.439 867.45C855.004 826.84 887.397 781.77 925.378 742.589C927.876 740.012 939.713 736.475 943.725 735.154C901.825 785.322 863.203 839.607 820.051 888.822C802.284 909.086 773.15 934.034 745.214 935.238C745.898 929.779 748.892 915.872 752.173 912.067C800.12 856.47 852.371 802.077 901.373 747.535C905.878 746.301 910.802 745.292 915.384 744.261C910.124 754.274 895.002 769.79 887.526 779.197C864.362 808.35 836.804 837.363 815.102 867.347C813.111 869.732 812.019 872.049 809.588 872.448C808.354 869.568 808.215 868.707 807.673 865.605L806.193 865.522C805.83 866.673 804.332 871.022 804.232 871.883C803.502 878.146 796.714 875.128 795.086 879.063C803.698 883.277 804.28 880.174 805.908 890.451L806.861 890.916C808.953 886.474 807.799 884.839 811.277 881.968C814.488 881.089 817.134 880.857 818.973 878.308L818.767 876.941L812.955 875.867L812.626 874.43C814.541 872.071 816.413 869.715 818.439 867.45Z"/><path fill="#020102" fill-opacity="0.019607844" transform="matrix(1.02069 0 0 1.0203 -675.697 -180.594)" d="M692.904 933.138C704.596 895.516 730.474 872.376 758.75 847.493L814.945 798.779C842.93 774.671 879.341 740.931 907.999 719.386C904.36 725.541 902.451 727.55 897.721 732.744C883.348 746.085 758.793 868.542 756.412 869.429C754.576 868.409 754.496 867.692 753.664 865.758C752.064 871.182 752.05 871.449 746.173 873.708C748.196 878.187 752.118 872.83 753.65 883.264C760.025 873.055 752.872 879.214 763.146 873.994L762.676 872.79L759.619 872.641C761.309 865.587 882.511 755.922 899.368 736.315C896.158 747.868 823.744 823.262 810.503 837.822L768.519 883.868C764.226 888.616 748.765 906.348 744.988 909.03C729.085 920.324 712.346 930.586 692.904 933.138Z"/><path fill="#020102" fill-opacity="0.0078431377" transform="matrix(1.02069 0 0 1.0203 -675.697 -180.594)" d="M1191.67 498.931C1194.6 503.153 1201.71 521.207 1204.77 527.03C1207.61 532.431 1212.82 542.322 1215 547.739L1213.47 547.525C1214.11 549.531 1214.78 551.524 1215.5 553.504C1209.09 554.643 1202.66 555.676 1196.21 556.604C1202.49 557.894 1209.75 558.547 1216.18 559.288C1206.66 577.539 1190.28 600.312 1178.32 617.44L1177.12 617.687L1175.78 615.452C1173.07 616.536 1174.01 615.988 1172.06 618.454L1169.9 616.682L1172.27 617.374L1172.03 618.037C1169.43 616.93 1151.34 594.263 1151.33 590.464L1156.71 588.834L1156.75 587.56C1154.51 586.157 1152.98 585.981 1150.44 585.392C1150.07 583.743 1184.38 502.844 1186.44 500.978L1188.32 503.172L1189.78 502.707L1191.67 498.931Z"/><path fill="#020102" fill-opacity="0.0078431377" transform="matrix(1.02069 0 0 1.0203 -675.697 -180.594)" d="M1151.27 461.228L1152.09 461.712C1152.69 464.545 1152.38 467.256 1151.92 470.109C1148.13 493.822 1140.19 503.265 1121.84 517.108L1120.56 516.731C1120.16 514.398 1120.18 513.234 1118.87 511.337L1117.97 511.891L1116.55 518.905C1108.94 517.839 1077.53 512.353 1071.21 509.451C1068.23 508.568 1067.07 508.486 1064.82 506.31C1060.51 497.563 1063.59 488.36 1065.53 478.736C1077.61 476.706 1089.92 476.497 1102.06 478.119C1104.43 479.424 1104.46 479.64 1105.65 482.173L1107.46 486.057L1107.44 486.022C1109.53 476.777 1111.21 478.306 1119.11 473.986C1129.43 468.344 1140.12 464.779 1151.27 461.228Z"/><path fill="#020102" fill-opacity="0.0078431377" transform="matrix(1.02069 0 0 1.0203 -675.697 -180.594)" d="M757.314 217.545C777.897 227.425 797.773 240.93 817.682 252.196C833.468 261.129 850.139 268.173 865.961 276.894C877.891 283.468 930.453 316.11 935.982 324.517L935.244 325.022C928.961 323.077 926.839 322.041 921.067 319.073C901.938 309.57 859.022 291.197 843.649 279.678C842.903 277.853 842.736 276.931 841.159 275.737C840.075 277.482 839.909 277.991 839.225 279.841C836.693 280.366 836.442 280.348 834.273 281.67C835.518 282.857 836.593 284.008 837.765 285.256C838.047 289.806 837.188 289.774 834.953 294.473C804.855 272.694 769.719 253.82 757.314 217.545Z"/><path fill="#494041" fill-opacity="0.97254902" transform="matrix(1.02069 0 0 1.0203 -675.697 -180.594)" d="M1004.98 613.957C1006.03 618.459 1007.29 623.041 1008.47 627.524C1020.12 629.737 1031.59 631.191 1043.33 632.806C1046.88 634.063 1049.97 635.076 1053.59 636.126L1054.97 639.19C1042.6 640.225 1027.55 630.438 1013.71 634.198C1001.77 637.443 1007.02 656.545 1005.83 665.8C1005.37 669.364 1007.18 676.885 1006.34 678.79C1003.88 679.877 1003.81 679.997 1001.88 681.934L1002.69 683.061L1004.84 683.229C1008.55 680.447 1009.5 678.944 1013.84 681.008C1011.75 686.128 1008.18 678.942 1005.53 690.816L1004.05 690.989C1003.41 689.098 1002.9 687.664 1002.13 685.823C988.685 692.203 934.161 714.462 928.754 724.773C928.243 725.746 927.656 726.633 927.063 727.558C922.1 725.407 926.603 723.586 918.959 719.308L919.234 718.003C924.848 715.62 924.473 716.061 925.848 710.708L927.474 710.155L928.477 712.371L929.681 712.531C936.159 706.913 941.813 699.584 947.388 693.001C964.075 673.298 983.139 654.579 999.294 634.548C997.582 631.722 996.149 634.147 992.483 631.461C994.561 629.003 995.008 628.507 998.014 627.424C999.278 626.966 1000.55 626.531 1001.83 626.118C1003.89 623.126 1004.35 617.766 1004.98 613.957ZM937.035 713.305C954.684 704.748 980.409 693.714 997.011 683.102C1000.65 680.775 1004.38 676.509 1003.99 672.136C1003.27 664.075 1005.87 642.077 1001.58 636.795C993.149 645.338 936.69 707.862 933.921 713.814C935.814 714.267 934.804 714.213 937.035 713.305Z"/><path fill="#020102" fill-opacity="0.0078431377" transform="matrix(1.02069 0 0 1.0203 -675.697 -180.594)" d="M1001.58 636.795C1005.87 642.077 1003.27 664.075 1003.99 672.136C1004.38 676.509 1000.65 680.775 997.011 683.102C980.409 693.714 954.684 704.748 937.035 713.305C934.804 714.213 935.814 714.267 933.921 713.814C936.69 707.862 993.149 645.338 1001.58 636.795Z"/><path fill="#020102" fill-opacity="0.0078431377" transform="matrix(1.02069 0 0 1.0203 -675.697 -180.594)" d="M824.89 206.395C832.902 210.337 856.099 230.406 863.872 236.971C876.76 247.767 889.761 258.427 902.872 268.949C917.827 280.94 945.435 300.195 957.885 312.531L957.766 313.841L951.831 315.021C944.49 315.118 945.788 314.843 942.248 308.629L941.293 309.046L939.428 315.207C929.825 310.112 919.979 302.756 910.477 297.151C876.137 276.898 832.984 249.22 824.89 206.395Z"/><path fill="#020102" fill-opacity="0.0078431377" transform="matrix(1.02069 0 0 1.0203 -675.697 -180.594)" d="M944.371 323.488C947.853 326.054 967.39 344 969.261 347.027C966.499 347.703 966.387 347.243 964.811 348.959C968.691 353.996 970.176 345.349 974.467 358.813L975.419 358.274C975.898 356.467 976.128 355.768 976.823 354.034C982.796 354.715 1016.53 381.131 1021.96 386.484L1014.36 390.254C1009.66 392.154 988.554 396.479 982.917 395.931C980.233 394.02 980.253 392.641 978.69 389.297L977.597 389.199C976.748 390.749 975.927 392.313 975.134 393.892C960.234 393.569 935.788 349.56 939.496 335.552C940.258 332.675 943.593 330.681 944.268 324.522L944.371 323.488Z"/><path fill="#020102" fill-opacity="0.0078431377" transform="matrix(1.02069 0 0 1.0203 -675.697 -180.594)" d="M985.886 500.172C991.868 497.139 1014.77 483.292 1019.32 483.615L1021.25 485.96C1022.78 484.1 1025.65 480.463 1028.02 480.111C1042.77 477.923 1064.03 471.66 1060.4 495.471C1059.79 499.46 1060.79 503.551 1058.07 507.104C1052.62 508.734 1035.93 528.383 1028.76 528.56L1027.7 526L1027.22 522.713L1026.16 522.027C1025.34 523.624 1023.56 528.694 1022.09 529.167C1020.92 529.539 1021.4 529.47 1020.21 529.328C1015.45 527.148 1009.36 525.051 1004.37 523.185C998.921 517.174 991.048 506.747 985.886 500.172Z"/><path fill="#020102" fill-opacity="0.0078431377" transform="matrix(1.02069 0 0 1.0203 -675.697 -180.594)" d="M970.21 483.743C971.674 486.478 976.19 500.346 978.374 505.4C968.303 521.397 958.45 543.168 949.456 560.166C934.539 588.355 941.601 583.4 910.597 586.691L909.763 585.385L907.165 571.606C912.814 564.558 943.549 520.573 947.465 518.634L948.539 522.433L949.749 522.857C951.191 520.231 952.463 517.967 954.062 515.42C956.42 514.43 957.468 514.242 959.082 512.367C958.06 510.51 957.824 510.942 955.278 509.892C955.089 505.65 967.082 488.557 970.21 483.743Z"/><path fill="#020102" fill-opacity="0.0078431377" transform="matrix(1.02069 0 0 1.0203 -675.697 -180.594)" d="M721.458 260.742C759.105 272.72 794.443 286.347 832.607 298.467L822.839 317.434C821.495 320.478 819.571 324.068 818.048 327.098C787.582 307.778 740.484 298.597 721.458 260.742Z"/><path fill="#020102" fill-opacity="0.0078431377" transform="matrix(1.02069 0 0 1.0203 -675.697 -180.594)" d="M983.194 509.538C986.37 512.879 992.182 520.385 995.332 524.202C990.833 540.067 978.401 570.509 972.145 587.621C965.989 591.205 959.052 593.353 952.266 595.366L949.505 596.396C946.324 595.493 944.036 590.797 941.985 587.645C955.391 565.035 970.891 533.594 983.194 509.538Z"/><path fill="#020102" fill-opacity="0.0078431377" transform="matrix(1.02069 0 0 1.0203 -675.697 -180.594)" d="M844.072 284.546C856.091 290.274 932.235 325.571 934.451 330.013C933.662 333.035 934.312 331.983 932.051 334.037C900.467 321.088 869.424 307.324 837.851 294.562L844.072 284.546Z"/><path fill="#020102" fill-opacity="0.0078431377" transform="matrix(1.02069 0 0 1.0203 -675.697 -180.594)" d="M963.496 458.793C966.24 461.439 966.141 472.569 966.73 477.567C960.412 485.984 951.619 500.003 945.831 509.102L933.728 503.96C932.182 503.312 926.81 500.179 925.052 499.211C932.839 490.023 954.484 467.751 963.496 458.793Z"/><path fill="#8E625D" fill-opacity="0.97254902" transform="matrix(1.02069 0 0 1.0203 -675.697 -180.594)" d="M897.721 732.744L899.704 733.127C899.627 733.947 899.527 735.588 899.368 736.315C882.511 755.922 761.309 865.587 759.619 872.641L762.676 872.79L763.146 873.994C752.872 879.214 760.025 873.055 753.65 883.264C752.118 872.83 748.196 878.187 746.173 873.708C752.05 871.449 752.064 871.182 753.664 865.758C754.496 867.692 754.576 868.409 756.412 869.429C758.793 868.542 883.348 746.085 897.721 732.744Z"/><path fill="#020102" fill-opacity="0.0078431377" transform="matrix(1.02069 0 0 1.0203 -675.697 -180.594)" d="M1026.29 436.668C1034.42 444.968 1049.15 461.898 1056.23 471.102C1055.16 473.178 1053.29 473.42 1050.7 474.617C1043.55 475.511 1029.99 478.631 1024.33 473.807C1021.12 468.465 1025.57 445.423 1026.29 436.668Z"/><path fill="#020102" fill-opacity="0.011764706" transform="matrix(1.02069 0 0 1.0203 -675.697 -180.594)" d="M1001.37 527.567C1006.36 531.237 1008.12 532.633 1013.93 535.071C1016.12 535.63 1018.78 536.227 1020.89 536.892C1007.71 553.718 992.909 572.161 978.936 588.297C986.067 567.927 993.548 547.681 1001.37 527.567Z"/><path fill="#020102" fill-opacity="0.011764706" transform="matrix(1.02069 0 0 1.0203 -675.697 -180.594)" d="M957.361 321.337L969.967 320.902C970.82 326.144 973.315 339.015 972.02 343.508L969.947 342.353C962.964 335.967 956.271 329.996 949.876 322.983L950.299 322.216L957.361 321.337Z"/><path fill="#8E625D" fill-opacity="0.96862745" transform="matrix(1.02069 0 0 1.0203 -675.697 -180.594)" d="M852.106 366.665C867.067 367.081 894.367 368.477 909.296 370.188C901.149 380.28 895.406 369.676 892.15 370.701C883.044 373.566 879.042 372.229 870.781 372.75C871.073 372.775 863.923 373.083 862.646 373.057C859.214 371.88 854.247 370.605 851.835 368.181L852.106 366.665Z"/><path fill="#3F3C3D" transform="matrix(1.02069 0 0 1.0203 -675.697 -180.594)" d="M818.439 867.45C816.413 869.715 814.541 872.071 812.626 874.43L812.955 875.867L818.767 876.941L818.973 878.308C817.134 880.857 814.488 881.089 811.277 881.968C807.799 884.839 808.953 886.474 806.861 890.916L805.908 890.451C804.28 880.174 803.698 883.277 795.086 879.063C796.714 875.128 803.502 878.146 804.232 871.883C804.332 871.022 805.83 866.673 806.193 865.522L807.673 865.605C808.215 868.707 808.354 869.568 809.588 872.448C812.019 872.049 813.111 869.732 815.102 867.347L818.439 867.45Z"/><path fill="#020102" fill-opacity="0.027450981" transform="matrix(1.02069 0 0 1.0203 -675.697 -180.594)" d="M1321.4 381.106C1328.86 381.052 1343.06 382.209 1349.81 385.216L1349.25 385.941L1342.82 386.025C1332.31 387.355 1322.96 388.617 1312.68 391.187C1315.38 387.378 1318.22 384.486 1321.4 381.106Z"/><path fill="#3F3C3D" transform="matrix(1.02069 0 0 1.0203 -675.697 -180.594)" d="M1020.21 529.328C1021.4 529.47 1020.92 529.539 1022.09 529.167C1023.56 528.694 1025.34 523.624 1026.16 522.027L1027.22 522.713L1027.7 526L1026.35 528.066L1026.98 529.9C1031.18 531.913 1034.5 531.859 1039.1 531.662L1038.49 532.172C1037.34 533.111 1035.39 534.75 1034.05 535.17C1029.87 536.479 1027.69 541.683 1024.91 543.609C1023.41 535.042 1024.44 541.806 1020.89 536.892C1018.78 536.227 1016.12 535.63 1013.93 535.071C1015.66 533.263 1018.29 531.045 1020.21 529.328Z"/><path fill="#8E625D" fill-opacity="0.93725491" transform="matrix(1.02069 0 0 1.0203 -675.697 -180.594)" d="M1313.19 405.514C1316.83 407.047 1315.54 406.042 1317.86 410.166C1286.08 449.305 1274.53 466.826 1267.63 518.408C1266.2 529.091 1259.24 555.306 1254.24 565.017C1253.41 564.766 1253.88 564.857 1252.64 564.862L1251.61 564.875L1250.61 563.805C1251.57 560.174 1251.68 559.463 1251.25 555.742L1251.14 554.868C1258.92 532.988 1261.49 517.464 1265.14 494.73C1270.98 458.279 1289.69 433.012 1313.19 405.514Z"/><path fill="#3F3C3D" transform="matrix(1.02069 0 0 1.0203 -675.697 -180.594)" d="M1161.29 728.712C1164.52 730.59 1166.27 733.137 1168.63 736.031L1165.1 736.681L1164.23 738.22C1165.82 740.609 1166.48 741.687 1168.52 743.685L1168.52 744.831C1165.54 759.425 1171.78 767.912 1154.37 775.314L1153.35 774.801C1154.29 771.411 1156.95 770.062 1159.92 767.835C1159.91 760.409 1159.83 756.195 1161.01 748.837C1157.93 743.147 1153.7 738.009 1149.76 732.855C1151.36 730.492 1151.54 729.73 1154.08 728.916C1157.13 729.478 1158.36 729.94 1161.29 728.712Z"/><path fill="#3F3C3D" fill-opacity="0.98431373" transform="matrix(1.02069 0 0 1.0203 -675.697 -180.594)" d="M1168.52 744.831L1168.52 743.685C1166.48 741.687 1165.82 740.609 1164.23 738.22L1165.1 736.681L1168.63 736.031C1184.57 751.214 1180.43 752.256 1179.91 774.314C1174.94 779.856 1168.12 785.442 1161.81 789.407C1165.44 783.227 1168.11 779.632 1172.41 773.949C1172.59 761.24 1174.65 755.526 1168.52 744.831Z"/><path fill="#8E625D" fill-opacity="0.98823529" transform="matrix(1.02069 0 0 1.0203 -675.697 -180.594)" d="M876.038 573.596C875.906 571.992 873.32 569.153 872.148 567.511L873.349 565.534C882.026 567.064 892.418 567.907 901.254 568.174L902.137 572.025C898.494 572.999 899.529 572.159 897.933 574.908C893.638 576.865 881.121 574.344 876.038 573.596Z"/></g></svg>